<?xml version="1.0" encoding="utf-8"?>
<!-- Generator: Adobe Illustrator 25.4.1, SVG Export Plug-In . SVG Version: 6.00 Build 0)  -->
<svg version="1.1" id="Calque_1" xmlns="http://www.w3.org/2000/svg" xmlns:xlink="http://www.w3.org/1999/xlink" x="0px" y="0px"
	 width="200px" height="63px" viewBox="0 0 200 63" style="enable-background:new 0 0 200 63;" xml:space="preserve">
<circle cx="150.9" cy="31.9" r="15.1"/>
<path d="M83,16.8c-8.3,0-15.1,6.8-15.1,15.1V47h30.2V31.9C98.1,23.5,91.4,16.8,83,16.8z"/>
<path d="M184.9,16.8c-8.3,0-15.1,6.8-15.1,15.1V47H200V31.9C200,23.5,193.2,16.8,184.9,16.8z"/>
<path d="M49.1,16.8c-8.3,0-15.1,6.8-15.1,15.1S40.7,47,49.1,47h15.1V31.9C64.2,23.5,57.4,16.8,49.1,16.8z"/>
<path d="M0,31.9C0,40.2,6.8,47,15.1,47v15.1c8.3,0,15.1-6.8,15.1-15.1V16.8H15.1C6.8,16.8,0,23.6,0,31.9z"/>
<path d="M117,1.7v15.1c-8.3,0-15.1,6.8-15.1,15.1S108.6,47,117,47h15.1V16.8C132.1,8.5,125.3,1.7,117,1.7z"/>
</svg>
