<?xml version="1.0" encoding="utf-8"?>
<!-- Generator: Adobe Illustrator 25.0.0, SVG Export Plug-In . SVG Version: 6.00 Build 0)  -->
<svg version="1.1" id="Calque_1" xmlns="http://www.w3.org/2000/svg" xmlns:xlink="http://www.w3.org/1999/xlink" x="0px" y="0px"
	 width="300px" height="120px" viewBox="0 0 300 120" style="enable-background:new 0 0 300 120;" xml:space="preserve">
<circle cx="217.2" cy="60" r="20"/>
<path d="M127.3,40c-11,0-20,9-20,20v20h40V60C147.3,48.9,138.3,40,127.3,40z"/>
<path d="M262.2,40c-11,0-20,9-20,20v20h40V60C282.2,48.9,273.3,40,262.2,40z"/>
<path d="M82.3,40c-11,0-20,9-20,20c0,11,9,20,20,20h20V60C102.3,48.9,93.3,40,82.3,40z"/>
<path d="M37.3,40c-11,0-20,9-20,20s9,20,20,20v20c11,0,20-9,20-20V40H37.3z"/>
<path d="M172.3,20v20c-11,0-20,9-20,20s9,20,20,20h20V40C192.3,29,183.3,20,172.3,20z"/>
</svg>
